<?xml version="1.0" encoding="UTF-8" standalone="no"?>
<svg
   viewBox="0 0 1114.28 1480.75"
   version="1.1"
   id="svg11"
   sodipodi:docname="gpac-logo-full.svg"
   inkscape:version="1.3 (0e150ed6c4, 2023-07-21)"
   xmlns:inkscape="http://www.inkscape.org/namespaces/inkscape"
   xmlns:sodipodi="http://sodipodi.sourceforge.net/DTD/sodipodi-0.dtd"
   xmlns="http://www.w3.org/2000/svg"
   xmlns:svg="http://www.w3.org/2000/svg">
  <sodipodi:namedview
     id="namedview11"
     pagecolor="#ffffff"
     bordercolor="#000000"
     borderopacity="0.25"
     inkscape:showpageshadow="2"
     inkscape:pageopacity="0.0"
     inkscape:pagecheckerboard="0"
     inkscape:deskcolor="#d1d1d1"
     inkscape:zoom="0.29073105"
     inkscape:cx="371.47735"
     inkscape:cy="201.2169"
     inkscape:window-width="1920"
     inkscape:window-height="1057"
     inkscape:window-x="-8"
     inkscape:window-y="-8"
     inkscape:window-maximized="1"
     inkscape:current-layer="svg11" />
  <defs
     id="defs1">
    <style
       id="style1">.cls-1{fill:none;}.cls-2{fill:#8f182b;}.cls-3{fill:#ef524f;}.cls-4{fill:#ba2030;}.cls-5{fill:#cd2044;}.cls-6{fill:#d92f32;}.cls-7{fill:#1a1c4a;}</style>
  </defs>
  <g
     id="Calque_2"
     data-name="Calque 2">
    <path
       class="cls-1"
       d="M721.55,993.28a391.05,391.05,0,1,0,428.68-636.91c-2.76-1.17-5.54-2.3-8.33-3.41L999.39,577.55c144.5,1.93,261,119.64,261,264.59h0c0,146.16-118.48,264.64-264.64,264.64h0c-146.16,0-264.64-118.48-264.64-264.64h0c0-145.56,117.53-263.66,262.87-264.61L852.07,353.83c-2.06.83-4.12,1.67-6.17,2.54A390.87,390.87,0,0,0,721.55,993.28Z"
       transform="translate(-440.93 -159.63)"
       id="path1" />
    <polygon
       class="cls-1"
       points="602.17 1405.9 683.63 1405.9 642.9 1284.24 602.17 1405.9"
       id="polygon1" />
    <path
       class="cls-1"
       d="M919,1432.86H875.68v82.76H919c33.62,0,47.84-15.84,47.84-41.06C966.85,1448.38,952.63,1432.86,919,1432.86Z"
       transform="translate(-440.93 -159.63)"
       id="path2" />
    <path
       class="cls-2"
       d="M995.79,577.5h0c1.2,0,2.4,0,3.6,0L1141.9,353a393.14,393.14,0,0,0-289.83.87L994,577.53Z"
       transform="translate(-440.93 -159.63)"
       id="path3" />
    <path
       class="cls-3"
       d="M1397,1104.51a555.35,555.35,0,0,1-395.87,165.12C693.45,1269.63,444,1020.19,444,712.49a554.5,554.5,0,0,1,86.86-298.86q-1.62,4.5-3.14,9.05c-.29.84-.57,1.69-.86,2.53,0,0,0,0,0,0v0a505.55,505.55,0,0,0-25.68,159.28c0,300.31,263.85,543.76,589.3,543.76,151.35,0,289.38-52.65,393.73-139.2a554.55,554.55,0,0,0,71-272.34c0-307.69-249.44-557.13-557.13-557.13S440.93,409.07,440.93,716.76,690.37,1273.9,998.07,1273.9c187.41,0,353.21-92.54,454.19-234.41a558.15,558.15,0,0,1-55.22,65ZM637.67,564.6A393.11,393.11,0,0,1,845.9,356.37c2.05-.87,4.11-1.71,6.17-2.54A393.14,393.14,0,0,1,1141.9,353c2.79,1.11,5.57,2.24,8.33,3.41A390.89,390.89,0,1,1,637.67,564.6Z"
       transform="translate(-440.93 -159.63)"
       id="path4" />
    <path
       class="cls-4"
       d="M461.58,677.51c0-91.75,23.85-178.36,66.16-254.83q1.51-4.55,3.14-9.05A554.5,554.5,0,0,0,444,712.49c0,307.7,249.43,557.14,557.14,557.14a555.09,555.09,0,0,0,235.58-52.1A656.53,656.53,0,0,1,1070,1238.88C734,1238.88,461.58,987.55,461.58,677.51Z"
       transform="translate(-440.93 -159.63)"
       id="path5" />
    <path
       class="cls-5"
       d="M526.88,425.21c.29-.84.57-1.69.86-2.53-42.31,76.47-66.16,163.08-66.16,254.83,0,310,272.38,561.37,608.38,561.37a656.53,656.53,0,0,0,166.78-21.35,558.38,558.38,0,0,0,160.29-113c-91.34,51.9-198.9,81.83-314,81.83-331.25,0-599.79-247.78-599.79-553.45a514.83,514.83,0,0,1,43.64-207.63v0S526.88,425.22,526.88,425.21Z"
       transform="translate(-440.93 -159.63)"
       id="path6" />
    <path
       class="cls-6"
       d="M1484.21,989.1c-104.35,86.55-242.38,139.2-393.73,139.2-325.45,0-589.3-243.45-589.3-543.76a505.55,505.55,0,0,1,25.68-159.28,514.83,514.83,0,0,0-43.64,207.63c0,305.67,268.54,553.45,599.79,553.45,115.12,0,222.68-29.93,314-81.83h0a560.33,560.33,0,0,0,88.42-116.43C1485.05,988.42,1484.63,988.76,1484.21,989.1Z"
       transform="translate(-440.93 -159.63)"
       id="path7" />
    <path
       class="cls-7"
       d="M995.79,577.5l-1.77,0c-145.34,1-262.87,119.05-262.87,264.61h0c0,146.16,118.48,264.64,264.64,264.64h0c146.16,0,264.64-118.48,264.64-264.64h0c0-144.95-116.54-262.66-261-264.59-1.2,0-2.4,0-3.6,0Z"
       transform="translate(-440.93 -159.63)"
       id="path8" />
    <path
       class="cls-7"
       d="M1067,1407.66l-81.47,231.9h31l18.11-50.11H1133l18.1,50.11h31L1101,1407.66Zm-23.93,157.86,40.74-121.65,40.73,121.65Z"
       transform="translate(-440.93 -159.63)"
       id="path9" />
    <path
       class="cls-7"
       d="M1308,1434.94c33,0,56.9,15.19,69.18,42.34h35.24c-16.81-43.64-55.61-68.21-104.42-68.21-63,0-112.51,47.85-112.51,115.41s49.47,114.77,112.51,114.77c48.81,0,87.61-24.25,104.42-67.57h-35.24c-12.28,26.84-36.21,42-69.18,42-47.2,0-82.44-34.27-82.44-89.23C1225.52,1469.2,1260.76,1434.94,1308,1434.94Z"
       transform="translate(-440.93 -159.63)"
       id="path10" />
    <path
       class="cls-7"
       d="M919,1408.61H846.27v108.22H762.86v.05H686.23v23.92h89.88c-4.53,44.61-34.92,73.06-79.21,73.06-47.52,0-83.08-34.26-83.08-88.25,0-54.31,35.56-88.58,83.08-88.58,31.68,0,56.25,15.19,68.54,41.38h35.24c-16.81-43.32-56.26-67.89-103.78-67.89-63.36,0-113.15,47.52-113.15,115.09s49.79,114.76,113.15,114.76c61,0,105.23-44.77,110.53-100.55h38.84v99.74h29.41v-99.69H919c55.92,0,77.91-31,77.91-65.31C996.92,1437.71,972,1408.61,919,1408.61Zm0,107H875.68v-82.76H919c33.62,0,47.84,15.52,47.84,41.7C966.85,1499.78,952.63,1515.62,919,1515.62Z"
       transform="translate(-440.93 -159.63)"
       id="path11" />
  </g>
</svg>
