<?xml version="1.0" encoding="UTF-8" standalone="no"?>
<svg
   viewBox="0 0 1114.2806 1114.3199"
   version="1.1"
   id="svg11"
   sodipodi:docname="gpac-logo.svg"
   width="1114.2806"
   height="1114.3199"
   inkscape:version="1.3 (0e150ed6c4, 2023-07-21)"
   xmlns:inkscape="http://www.inkscape.org/namespaces/inkscape"
   xmlns:sodipodi="http://sodipodi.sourceforge.net/DTD/sodipodi-0.dtd"
   xmlns="http://www.w3.org/2000/svg"
   xmlns:svg="http://www.w3.org/2000/svg">
  <sodipodi:namedview
     id="namedview11"
     pagecolor="#ffffff"
     bordercolor="#000000"
     borderopacity="0.25"
     inkscape:showpageshadow="2"
     inkscape:pageopacity="0.0"
     inkscape:pagecheckerboard="0"
     inkscape:deskcolor="#d1d1d1"
     inkscape:zoom="0.5814621"
     inkscape:cx="557.21603"
     inkscape:cy="1209.8811"
     inkscape:window-width="1920"
     inkscape:window-height="1057"
     inkscape:window-x="-8"
     inkscape:window-y="-8"
     inkscape:window-maximized="1"
     inkscape:current-layer="Calque_2" />
  <defs
     id="defs1">
    <style
       id="style1">.cls-1{fill:none;}.cls-2{fill:#8f182b;}.cls-3{fill:#ef524f;}.cls-4{fill:#ba2030;}.cls-5{fill:#cd2044;}.cls-6{fill:#d92f32;}.cls-7{fill:#1a1c4a;}</style>
  </defs>
  <g
     id="Calque_2"
     data-name="Calque 2"
     transform="translate(0,0.05)">
    <path
       class="cls-1"
       d="m 721.55,993.28 a 391.05,391.05 0 1 0 428.68,-636.91 c -2.76,-1.17 -5.54,-2.3 -8.33,-3.41 L 999.39,577.55 c 144.5,1.93 261,119.64 261,264.59 v 0 c 0,146.16 -118.48,264.64 -264.64,264.64 v 0 c -146.16,0 -264.64,-118.48 -264.64,-264.64 v 0 c 0,-145.56 117.53,-263.66 262.87,-264.61 L 852.07,353.83 c -2.06,0.83 -4.12,1.67 -6.17,2.54 A 390.87,390.87 0 0 0 721.55,993.28 Z"
       transform="translate(-440.93,-159.63)"
       id="path1" />
    <path
       class="cls-2"
       d="m 995.79,577.5 v 0 c 1.2,0 2.4,0 3.6,0 L 1141.9,353 a 393.14,393.14 0 0 0 -289.83,0.87 L 994,577.53 Z"
       transform="translate(-440.93,-159.63)"
       id="path3" />
    <path
       class="cls-3"
       d="m 1397,1104.51 a 555.35,555.35 0 0 1 -395.87,165.12 C 693.45,1269.63 444,1020.19 444,712.49 a 554.5,554.5 0 0 1 86.86,-298.86 q -1.62,4.5 -3.14,9.05 c -0.29,0.84 -0.57,1.69 -0.86,2.53 0,0 0,0 0,0 v 0 a 505.55,505.55 0 0 0 -25.68,159.28 c 0,300.31 263.85,543.76 589.3,543.76 151.35,0 289.38,-52.65 393.73,-139.2 a 554.55,554.55 0 0 0 71,-272.34 c 0,-307.69 -249.44,-557.13 -557.13,-557.13 -307.69,0 -557.15,249.49 -557.15,557.18 0,307.69 249.44,557.14 557.14,557.14 187.41,0 353.21,-92.54 454.19,-234.41 a 558.15,558.15 0 0 1 -55.22,65 z M 637.67,564.6 A 393.11,393.11 0 0 1 845.9,356.37 c 2.05,-0.87 4.11,-1.71 6.17,-2.54 A 393.14,393.14 0 0 1 1141.9,353 c 2.79,1.11 5.57,2.24 8.33,3.41 A 390.89,390.89 0 1 1 637.67,564.6 Z"
       transform="translate(-440.93,-159.63)"
       id="path4" />
    <path
       class="cls-4"
       d="m 461.58,677.51 c 0,-91.75 23.85,-178.36 66.16,-254.83 q 1.51,-4.55 3.14,-9.05 A 554.5,554.5 0 0 0 444,712.49 c 0,307.7 249.43,557.14 557.14,557.14 a 555.09,555.09 0 0 0 235.58,-52.1 656.53,656.53 0 0 1 -166.72,21.35 c -336,0 -608.42,-251.33 -608.42,-561.37 z"
       transform="translate(-440.93,-159.63)"
       id="path5" />
    <path
       class="cls-5"
       d="m 526.88,425.21 c 0.29,-0.84 0.57,-1.69 0.86,-2.53 -42.31,76.47 -66.16,163.08 -66.16,254.83 0,310 272.38,561.37 608.38,561.37 a 656.53,656.53 0 0 0 166.78,-21.35 558.38,558.38 0 0 0 160.29,-113 c -91.34,51.9 -198.9,81.83 -314,81.83 -331.25,0 -599.79,-247.78 -599.79,-553.45 a 514.83,514.83 0 0 1 43.64,-207.63 v 0 c 0,0 0,-0.06 0,-0.07 z"
       transform="translate(-440.93,-159.63)"
       id="path6" />
    <path
       class="cls-6"
       d="m 1484.21,989.1 c -104.35,86.55 -242.38,139.2 -393.73,139.2 -325.45,0 -589.3,-243.45 -589.3,-543.76 a 505.55,505.55 0 0 1 25.68,-159.28 514.83,514.83 0 0 0 -43.64,207.63 c 0,305.67 268.54,553.45 599.79,553.45 115.12,0 222.68,-29.93 314,-81.83 v 0 a 560.33,560.33 0 0 0 88.42,-116.43 c -0.38,0.34 -0.8,0.68 -1.22,1.02 z"
       transform="translate(-440.93,-159.63)"
       id="path7" />
    <path
       class="cls-7"
       d="m 995.79,577.5 h -1.77 c -145.34,1 -262.87,119.05 -262.87,264.61 v 0 c 0,146.16 118.48,264.64 264.64,264.64 v 0 c 146.16,0 264.64,-118.48 264.64,-264.64 v 0 c 0,-144.95 -116.54,-262.66 -261,-264.59 -1.2,0 -2.4,0 -3.6,0 z"
       transform="translate(-440.93,-159.63)"
       id="path8" />
  </g>
</svg>
